<svg preserveAspectRatio="none" overflow="visible" style="display: block;" width="31.7895" height="18.4586" viewBox="0 0 31.7895 18.4586" fill="none" xmlns="http://www.w3.org/2000/svg">
<g id="Group">
<path id="Vector" d="M31.7004 17.7592C31.6905 17.6943 31.6801 17.63 31.6695 17.5662C31.3945 15.9127 30.8583 14.3131 30.0808 12.8267C29.7381 12.172 29.3505 11.5417 28.9206 10.9402C28.396 10.2064 27.8099 9.51819 27.1686 8.88305C26.3155 8.03685 25.3693 7.28923 24.348 6.65437C24.3539 6.64403 24.3599 6.63368 24.3659 6.62333C24.6867 6.0713 25.0076 5.5192 25.3284 4.96703L26.2695 3.34953C26.4949 2.9624 26.72 2.57508 26.9448 2.18759C26.9982 2.09558 27.0406 2.00085 27.072 1.90339C27.1356 1.70577 27.1563 1.4969 27.1327 1.2907C27.109 1.0845 27.0415 0.885676 26.9347 0.707466C26.8106 0.500382 26.6365 0.327493 26.4282 0.204514C26.2385 0.0925833 26.026 0.0244936 25.8063 0.00526348C25.6383 -0.00894628 25.4691 0.00566779 25.3061 0.0484695C25.1206 0.0975263 24.9467 0.182561 24.7942 0.298702C24.6418 0.414843 24.5138 0.559808 24.4177 0.725293C24.1923 1.11261 23.9672 1.49993 23.7423 1.88724L22.8013 3.50474C22.4806 4.05719 22.1592 4.60859 21.8385 5.16104C21.8034 5.22116 21.7684 5.28164 21.7333 5.34246C21.6844 5.32317 21.6364 5.30387 21.5876 5.28541C19.8196 4.6132 17.9011 4.24553 15.8958 4.24553C15.8411 4.24539 15.7863 4.24567 15.7316 4.24637C13.9968 4.26203 12.2762 4.55979 10.6377 5.1279C10.4528 5.19222 10.2698 5.2599 10.0886 5.33093C10.0558 5.27444 10.023 5.21809 9.99032 5.16188C9.66947 4.60957 9.34856 4.05747 9.02758 3.50558L8.08653 1.88787C7.86112 1.50072 7.636 1.1134 7.41116 0.725923C7.27226 0.486898 7.06788 0.292248 6.82195 0.164766C6.57602 0.0372837 6.29872 -0.0177524 6.02253 0.00610244C5.80273 0.0246182 5.59006 0.092758 5.40063 0.205353C5.07212 0.39978 4.83343 0.715008 4.736 1.08311C4.63657 1.45654 4.68979 1.85401 4.884 2.18842L5.55937 3.35037L6.50042 4.96808C6.82105 5.52053 7.14253 6.07193 7.46316 6.62438C7.46526 6.62899 7.46842 6.63361 7.47074 6.63822C6.43927 7.27737 5.4839 8.03103 4.62295 8.88472C3.98202 9.52021 3.39594 10.2083 2.87095 10.9418C2.44055 11.5429 2.05293 12.1734 1.71095 12.8284C0.933631 14.3148 0.397449 15.9144 0.122316 17.5679C0.0731496 17.8636 0.0323615 18.1606 0 18.4586H31.7895C31.7641 18.2254 31.7336 17.9927 31.6981 17.7608L31.7004 17.7592Z" fill="#34A853"/>
<path id="Vector_2" d="M24.1636 14.0759C24.7998 13.654 24.8922 12.6774 24.3701 11.8947C23.848 11.1124 22.9093 10.8202 22.2733 11.2424C21.6373 11.6644 21.5448 12.6409 22.0669 13.4237C22.5888 14.206 23.5276 14.4981 24.1636 14.0759ZM9.75032 13.426C10.2724 12.6436 10.1798 11.6669 9.544 11.2447C8.90779 10.8227 7.96905 11.1149 7.44716 11.8974C6.92526 12.6799 7.01747 13.6565 7.65347 14.0787C8.28947 14.5009 9.22821 14.2087 9.75032 13.426Z" fill="#202124"/>
</g>
</svg>
