<svg preserveAspectRatio="none" width="100%" height="100%" overflow="visible" style="display: block;" viewBox="0 0 24 20" fill="none" xmlns="http://www.w3.org/2000/svg">
<path id="Vector" d="M22.3796 0.132243L1.1204 8.27927C-0.330573 8.85768 -0.321968 9.66177 0.855931 10.0203L6.15805 11.6646L8.18676 17.8445C8.4334 18.5209 8.31182 18.7891 9.02669 18.7891C9.57837 18.7891 9.82311 18.5392 10.1304 18.241C10.3258 18.051 11.4859 16.9303 12.7813 15.679L18.2965 19.7277C19.3113 20.284 20.0441 19.9958 20.2969 18.7912L23.9172 1.84059C24.2878 0.364112 23.3506 -0.30561 22.3796 0.132243ZM6.99016 11.2868L18.9412 3.79532C19.5378 3.43583 20.0848 3.6291 19.6357 4.02522L9.40248 13.1988L9.00403 17.4212L6.99016 11.2868V11.2868Z" fill="white" fill-opacity="0.6"/>
</svg>
