<svg width="304" height="304" viewBox="0 0 304 304" fill="none" xmlns="http://www.w3.org/2000/svg">
<path d="M106.197 65.1135C128.501 33.4059 175.499 33.4059 197.803 65.1135L209.159 81.2573C212.871 86.5338 217.466 91.1292 222.743 94.8409L238.887 106.197C270.594 128.501 270.594 175.499 238.887 197.803L222.743 209.159C217.466 212.871 212.871 217.466 209.159 222.743L197.803 238.887C175.499 270.594 128.501 270.594 106.197 238.887L94.8409 222.743C91.1293 217.466 86.5338 212.871 81.2573 209.159L65.1135 197.803C33.4059 175.499 33.4059 128.501 65.1135 106.197L81.2573 94.8409C86.5338 91.1292 91.1292 86.5338 94.8409 81.2573L106.197 65.1135Z" fill="#111C31"/>
<path d="M80.92 173.3C79.44 173.3 78.38 172.98 77.74 172.34C77.1 171.66 76.78 170.4 76.78 168.56C76.78 167.32 76.9 165.74 77.14 163.82C77.42 161.86 77.86 159.18 78.46 155.78C79.5 149.5 80.32 144.06 80.92 139.46C81.28 136.58 81.46 134.18 81.46 132.26C81.46 130.46 80.8 129.56 79.48 129.56C78.44 129.56 77.18 130.1 75.7 131.18C74.26 132.22 72.66 133.9 70.9 136.22C70.34 136.98 69.72 137.36 69.04 137.36C68.48 137.36 67.98 137.1 67.54 136.58C67.14 136.02 66.94 135.4 66.94 134.72C66.94 134.08 67.06 133.44 67.3 132.8C67.58 132.12 68.02 131.36 68.62 130.52C70.54 127.84 72.68 125.78 75.04 124.34C77.4 122.86 79.76 122.12 82.12 122.12C84.32 122.12 86 122.82 87.16 124.22C88.36 125.62 88.96 127.66 88.96 130.34C88.96 131.42 88.86 132.7 88.66 134.18C88.46 135.62 88.28 136.8 88.12 137.72C87.96 138.64 87.84 139.28 87.76 139.64C90.04 133.12 92.6 128.58 95.44 126.02C98.28 123.42 101.4 122.12 104.8 122.12C107.4 122.12 109.44 123.04 110.92 124.88C112.44 126.72 113.2 129.32 113.2 132.68C113.2 134 113.02 135.64 112.66 137.6C114.66 132.08 117 128.12 119.68 125.72C122.36 123.32 125.44 122.12 128.92 122.12C131.72 122.12 133.86 123.02 135.34 124.82C136.86 126.62 137.62 129.14 137.62 132.38C137.62 134.14 137.36 136.28 136.84 138.8L133.18 155.96C132.78 157.96 132.58 159.68 132.58 161.12C132.58 162.8 132.96 164.06 133.72 164.9C134.52 165.74 135.62 166.16 137.02 166.16C138.34 166.16 139.62 165.72 140.86 164.84C142.14 163.96 143.64 162.5 145.36 160.46C145.84 159.9 146.38 159.62 146.98 159.62C147.5 159.62 147.9 159.86 148.18 160.34C148.5 160.82 148.66 161.48 148.66 162.32C148.66 163.88 148.28 165.12 147.52 166.04C145.44 168.56 143.38 170.4 141.34 171.56C139.3 172.72 137.16 173.3 134.92 173.3C131.52 173.3 128.86 172.3 126.94 170.3C125.02 168.26 124.06 165.54 124.06 162.14C124.06 159.78 124.54 156.36 125.5 151.88L127.9 140.9C127.98 140.54 128.12 139.9 128.32 138.98C128.52 138.06 128.68 137.2 128.8 136.4C128.92 135.56 128.98 134.74 128.98 133.94C128.98 132.54 128.7 131.5 128.14 130.82C127.62 130.1 126.86 129.74 125.86 129.74C123.98 129.74 122 130.96 119.92 133.4C117.88 135.8 115.92 139.8 114.04 145.4C112.2 151 110.7 158.28 109.54 167.24C109.26 169.64 108.76 171.26 108.04 172.1C107.36 172.9 106.24 173.3 104.68 173.3C103.32 173.3 102.32 172.98 101.68 172.34C101.08 171.7 100.78 170.5 100.78 168.74C100.78 167.1 101 164.96 101.44 162.32C101.88 159.64 102.44 156.5 103.12 152.9C104.96 143.22 105.88 136.98 105.88 134.18C105.88 132.66 105.58 131.54 104.98 130.82C104.42 130.1 103.56 129.74 102.4 129.74C100.44 129.74 98.42 130.86 96.34 133.1C94.26 135.3 92.22 139.24 90.22 144.92C88.26 150.56 86.62 158.2 85.3 167.84C85.02 169.88 84.6 171.3 84.04 172.1C83.52 172.9 82.48 173.3 80.92 173.3ZM151.685 141.08C150.005 141.08 148.745 140.7 147.905 139.94C147.065 139.14 146.645 138.04 146.645 136.64C146.645 135.24 147.185 134.08 148.265 133.16C149.385 132.2 150.765 131.72 152.405 131.72C153.885 131.72 155.085 132.08 156.005 132.8C156.925 133.52 157.385 134.54 157.385 135.86C157.385 137.46 156.865 138.74 155.825 139.7C154.785 140.62 153.405 141.08 151.685 141.08ZM151.205 173.3C148.605 173.3 146.705 172.38 145.505 170.54C144.345 168.7 143.765 166.26 143.765 163.22C143.765 161.42 143.985 159.12 144.425 156.32C144.905 153.48 145.505 150.84 146.225 148.4C146.585 147.12 147.065 146.24 147.665 145.76C148.265 145.28 149.225 145.04 150.545 145.04C152.585 145.04 153.605 145.72 153.605 147.08C153.605 148.08 153.225 150.4 152.465 154.04C151.505 158.44 151.025 161.42 151.025 162.98C151.025 164.18 151.185 165.1 151.505 165.74C151.825 166.38 152.365 166.7 153.125 166.7C153.845 166.7 154.745 166.2 155.825 165.2C156.905 164.2 158.345 162.62 160.145 160.46C160.625 159.9 161.165 159.62 161.765 159.62C162.285 159.62 162.685 159.86 162.965 160.34C163.285 160.82 163.445 161.48 163.445 162.32C163.445 163.92 163.065 165.16 162.305 166.04C158.345 170.88 154.645 173.3 151.205 173.3ZM162.851 173.3C161.331 173.3 160.251 172.5 159.611 170.9C159.011 169.3 158.711 166.74 158.711 163.22C158.711 158.02 159.451 153.08 160.931 148.4C161.291 147.24 161.871 146.4 162.671 145.88C163.511 145.32 164.671 145.04 166.151 145.04C166.951 145.04 167.511 145.14 167.831 145.34C168.151 145.54 168.311 145.92 168.311 146.48C168.311 147.12 168.011 148.56 167.411 150.8C167.011 152.4 166.691 153.8 166.451 155C166.211 156.2 166.011 157.68 165.851 159.44C167.171 156 168.651 153.2 170.291 151.04C171.931 148.88 173.531 147.34 175.091 146.42C176.691 145.5 178.151 145.04 179.471 145.04C182.071 145.04 183.371 146.34 183.371 148.94C183.371 150.5 182.931 153.32 182.051 157.4C181.291 160.88 180.911 163.18 180.911 164.3C180.911 165.9 181.491 166.7 182.651 166.7C183.451 166.7 184.391 166.22 185.471 165.26C186.591 164.26 188.071 162.66 189.911 160.46C190.391 159.9 190.931 159.62 191.531 159.62C192.051 159.62 192.451 159.86 192.731 160.34C193.051 160.82 193.211 161.48 193.211 162.32C193.211 163.92 192.831 165.16 192.071 166.04C190.351 168.16 188.491 169.9 186.491 171.26C184.531 172.62 182.291 173.3 179.771 173.3C177.731 173.3 176.191 172.72 175.151 171.56C174.111 170.36 173.591 168.64 173.591 166.4C173.591 165.28 173.871 163.28 174.431 160.4C174.951 157.88 175.211 156.14 175.211 155.18C175.211 154.54 174.991 154.22 174.551 154.22C174.031 154.22 173.291 154.9 172.331 156.26C171.411 157.58 170.451 159.34 169.451 161.54C168.491 163.74 167.711 166.06 167.111 168.5C166.671 170.38 166.151 171.66 165.551 172.34C164.991 172.98 164.091 173.3 162.851 173.3ZM218.957 154.58C219.477 154.58 219.877 154.84 220.157 155.36C220.437 155.88 220.577 156.54 220.577 157.34C220.577 159.26 219.997 160.4 218.837 160.76C216.437 161.6 213.797 162.08 210.917 162.2C210.157 165.56 208.657 168.26 206.417 170.3C204.177 172.3 201.637 173.3 198.797 173.3C196.397 173.3 194.337 172.72 192.617 171.56C190.937 170.4 189.657 168.86 188.777 166.94C187.897 165.02 187.457 162.94 187.457 160.7C187.457 157.66 188.037 154.96 189.197 152.6C190.357 150.2 191.957 148.34 193.997 147.02C196.037 145.66 198.297 144.98 200.777 144.98C203.817 144.98 206.257 146.04 208.097 148.16C209.977 150.24 211.077 152.82 211.397 155.9C213.277 155.78 215.517 155.38 218.117 154.7C218.437 154.62 218.717 154.58 218.957 154.58ZM199.277 166.94C200.557 166.94 201.657 166.42 202.577 165.38C203.537 164.34 204.177 162.84 204.497 160.88C203.257 160.04 202.297 158.94 201.617 157.58C200.977 156.22 200.657 154.78 200.657 153.26C200.657 152.62 200.717 151.98 200.837 151.34H200.537C198.937 151.34 197.597 152.12 196.517 153.68C195.477 155.2 194.957 157.36 194.957 160.16C194.957 162.36 195.377 164.04 196.217 165.2C197.097 166.36 198.117 166.94 199.277 166.94ZM239.667 153.26C240.547 153.26 241.287 153.58 241.887 154.22C242.527 154.82 242.847 155.58 242.847 156.5C242.847 157.02 242.727 157.58 242.487 158.18C241.847 159.66 240.947 160.9 239.787 161.9C238.627 162.9 237.347 163.4 235.947 163.4C234.827 163.4 233.867 163 233.067 162.2C232.307 161.4 231.927 160.32 231.927 158.96C231.927 158.2 231.967 157.38 232.047 156.5C232.127 155.86 232.167 155.42 232.167 155.18C232.167 154.86 232.087 154.62 231.927 154.46C231.807 154.3 231.647 154.22 231.447 154.22C230.887 154.22 230.127 154.9 229.167 156.26C228.207 157.58 227.247 159.34 226.287 161.54C225.327 163.74 224.547 166.06 223.947 168.5C223.507 170.42 223.007 171.7 222.447 172.34C221.887 172.98 220.967 173.3 219.687 173.3C218.167 173.3 217.087 172.5 216.447 170.9C215.847 169.3 215.547 166.74 215.547 163.22C215.547 158.02 216.287 153.08 217.767 148.4C218.127 147.24 218.707 146.4 219.507 145.88C220.347 145.32 221.507 145.04 222.987 145.04C223.787 145.04 224.347 145.14 224.667 145.34C224.987 145.54 225.147 145.92 225.147 146.48C225.147 147.12 224.847 148.56 224.247 150.8C223.847 152.4 223.527 153.8 223.287 155C223.047 156.2 222.847 157.68 222.687 159.44C224.007 156 225.487 153.2 227.127 151.04C228.767 148.88 230.367 147.34 231.927 146.42C233.487 145.5 234.907 145.04 236.187 145.04C237.347 145.04 238.227 145.38 238.827 146.06C239.467 146.7 239.787 147.66 239.787 148.94C239.787 149.7 239.567 151.14 239.127 153.26H239.667Z" fill="#59C6E7"/>
<path d="M120.027 209.172C119.175 209.172 118.398 209.007 117.696 208.678C116.994 208.348 116.436 207.861 116.021 207.217C115.612 206.565 115.408 205.767 115.408 204.821V201.588H119.146V204.596C119.146 204.925 119.211 205.19 119.34 205.391C119.476 205.591 119.691 205.691 119.984 205.691C120.55 205.691 120.833 205.344 120.833 204.649V192.242H124.646V204.273C124.646 205.276 124.45 206.146 124.056 206.884C123.662 207.614 123.118 208.18 122.423 208.581C121.728 208.975 120.93 209.172 120.027 209.172ZM125.592 209L127.418 192.242H133.831L135.625 209H132.048L131.801 205.949H129.48L129.266 209H125.592ZM130.49 195.25L129.792 202.931H131.446L130.662 195.25H130.49ZM141.189 209.172C139.822 209.172 138.719 208.746 137.881 207.894C137.05 207.041 136.635 205.849 136.635 204.316V197.742C136.635 195.909 136.996 194.505 137.72 193.531C138.45 192.557 139.635 192.07 141.275 192.07C142.171 192.07 142.965 192.235 143.66 192.564C144.362 192.894 144.913 193.388 145.314 194.047C145.715 194.699 145.916 195.522 145.916 196.518V199.525H142.156V196.883C142.156 196.317 142.085 195.938 141.941 195.744C141.798 195.544 141.576 195.443 141.275 195.443C140.924 195.443 140.688 195.572 140.566 195.83C140.445 196.081 140.384 196.417 140.384 196.84V204.37C140.384 204.893 140.459 205.262 140.609 205.477C140.767 205.691 140.989 205.799 141.275 205.799C141.598 205.799 141.823 205.666 141.952 205.401C142.088 205.136 142.156 204.793 142.156 204.37V201.932H145.959V204.435C145.959 206.096 145.54 207.303 144.702 208.055C143.864 208.799 142.693 209.172 141.189 209.172ZM147.227 209V192.242H150.965V199.117L152.727 192.242H156.529L154.381 200.202L156.97 209H153.049L150.986 201.298V209H147.227ZM157.625 209V192.242H162.405C163.451 192.242 164.296 192.471 164.94 192.93C165.592 193.388 166.068 194.029 166.369 194.853C166.67 195.669 166.82 196.629 166.82 197.731C166.82 198.791 166.691 199.726 166.434 200.535C166.176 201.344 165.743 201.978 165.134 202.437C164.532 202.895 163.709 203.124 162.663 203.124H161.342V209H157.625ZM161.342 199.729H161.557C162.258 199.729 162.688 199.543 162.846 199.171C163.003 198.799 163.082 198.297 163.082 197.667C163.082 197.087 163.003 196.614 162.846 196.249C162.695 195.877 162.334 195.69 161.761 195.69H161.342V199.729ZM172.535 209.172C170.988 209.172 169.825 208.706 169.044 207.775C168.263 206.837 167.873 205.527 167.873 203.844V197.012C167.873 195.386 168.271 194.158 169.065 193.327C169.868 192.489 171.024 192.07 172.535 192.07C174.053 192.07 175.21 192.489 176.005 193.327C176.8 194.158 177.197 195.386 177.197 197.012V203.844C177.197 205.527 176.807 206.837 176.026 207.775C175.246 208.706 174.082 209.172 172.535 209.172ZM172.567 205.799C172.925 205.799 173.158 205.638 173.266 205.315C173.373 204.986 173.427 204.592 173.427 204.134V196.84C173.427 196.503 173.38 196.188 173.287 195.895C173.194 195.594 172.961 195.443 172.589 195.443C172.224 195.443 171.973 195.583 171.837 195.862C171.708 196.134 171.644 196.471 171.644 196.872V204.155C171.644 204.649 171.701 205.047 171.815 205.348C171.93 205.648 172.181 205.799 172.567 205.799ZM180.345 209V195.873H178.1V192.242H186.371V195.873H184.126V209H180.345Z" fill="white" fill-opacity="0.16"/>
<path d="M162.917 38.5V76.4167H162.914L162.25 75.8358L161.666 75.3203L156.72 70.9831L150.46 65.4914L144.199 70.9831L138.024 76.3997L138.005 76.4167H138V38.5H162.917Z" fill="#EC5564"/>
<path d="M162.917 38.5V76.4167H162.914L162.25 75.8358L161.663 75.3203L156.72 70.9831L150.457 65.4914L144.197 70.9831L138.024 76.3997C138.024 76.3997 138.007 76.4118 138 76.4167C139.375 74.9766 140.952 73.3792 142.369 71.973C144.988 69.3784 147.736 66.7451 150.418 64.228C154.13 67.2751 158.019 70.5329 161.666 73.6793C161.683 61.9456 161.928 50.1901 162.917 38.5V38.5Z" fill="#D94453"/>
<path d="M157.679 55.0114V54.9339C157.679 54.8299 157.671 54.7282 157.659 54.6193L157.652 54.566V54.5443C157.647 54.5007 157.64 54.4499 157.63 54.4039L157.623 54.3579L157.598 54.2393C157.37 53.1744 156.715 52.6032 156.581 52.4967C155.323 51.3833 152.821 50.7105 149.148 50.4951L149.036 50.4878L149.026 47.8908H151.297C151.562 47.8908 151.83 47.915 152.093 47.9562C152.343 47.9949 152.587 48.0675 152.818 48.1716C153.018 48.2611 153.19 48.3991 153.319 48.5733C153.446 48.7428 153.509 48.9582 153.512 49.2196C153.519 49.4519 153.458 49.6818 153.337 49.8803C153.31 49.9215 153.281 49.9602 153.251 49.9989C153.188 50.0715 152.976 50.2845 152.482 50.4951C153.3 50.6355 154.439 50.892 155.432 51.3277L155.508 51.2865H155.515C155.676 51.1994 155.824 51.0953 155.958 50.9767C156.016 50.9283 156.07 50.8775 156.119 50.8242L156.243 50.6984C156.734 50.1925 156.98 49.5439 156.973 48.7718C156.968 48.0239 156.795 47.4092 156.457 46.9517C156.109 46.4894 155.651 46.124 155.123 45.8868C154.544 45.6278 153.93 45.4584 153.3 45.3882C152.636 45.3059 151.969 45.2648 151.299 45.2648H145.572L145.587 50.4273H145.56C142.839 50.4733 139.643 50.7395 139.643 50.7395C140.77 50.7444 145.562 51.0517 145.562 51.0517H145.589V58.8742H151.942C152.628 58.8742 153.312 58.8089 153.986 58.683C154.629 58.5692 155.252 58.3563 155.829 58.0537C156.357 57.7754 156.812 57.3809 157.163 56.8992C157.496 56.4321 157.671 55.844 157.679 55.1493V55.0913C157.679 55.067 157.679 55.0453 157.679 55.0186V55.0114ZM154.076 55.3454L154.062 55.372C154.055 55.3841 154.05 55.3962 154.04 55.4083C153.904 55.6068 153.726 55.7738 153.519 55.8996C153.298 56.0303 153.052 56.1223 152.799 56.1659C152.536 56.2167 152.27 56.2409 152.003 56.2433H149.182L149.06 56.2264V55.9505C149.067 55.0574 149.082 52.9953 149.089 52.5693C149.092 52.4289 149.079 52.2861 149.05 52.1481L149.041 52.1046L149.011 52.0102C148.985 51.9255 148.941 51.8456 148.882 51.7754C148.875 51.7633 148.865 51.7536 148.856 51.7415L148.671 51.5189L150.092 51.8456C152.368 52.4458 153.368 53.1477 153.811 53.6342C154.454 54.462 154.176 55.1518 154.074 55.3454H154.076Z" fill="white"/>
</svg>
