<svg width="500" height="500" viewBox="0 0 500 500" fill="none" xmlns="http://www.w3.org/2000/svg">
<rect width="500" height="500" fill="#8988C5"/>
<g id="NFL">
<rect x="-19.5" y="-1099.5" width="3239" height="3239" rx="4.5" stroke="#9747FF" stroke-dasharray="10 5"/>
<g id="NFL=HOU">
<path id="Vector" d="M347.508 126.74C435.24 193.504 368.476 203.5 299.956 213.25C299.956 213.25 271.043 205.28 220.949 180.384C107.322 123.952 143.09 97.3592 232.397 81.2708C89.4707 19.0082 -29.6507 127.421 101.762 232.832L65.6989 258.612C95.3255 276.767 156.694 314.864 147.773 373.191L117.318 394.962L210.347 437.118L283.753 403.859C284.286 371.551 342.022 354.774 366.868 289.059C503.62 257.686 468.794 137.392 347.516 126.748L347.508 126.74Z" fill="white"/>
<path id="Vector_2" d="M285.002 219.406C113.335 153.101 101.961 98.71 209.119 79.9156C75.1061 43.4994 -3.05633 140.62 129.538 233.239L93.9579 258.667C131.735 283.907 171.776 321.291 158.189 380.118L140.263 392.918L209.111 424.127C273.185 353.951 306.707 285.76 284.993 219.406H285.002ZM241.73 326.17L215.359 296.174L185.076 300.684L199.074 277.626L172.703 247.606L207.725 263.366L221.689 240.308L229.332 273.091L264.354 288.827L234.063 293.362L241.73 326.162V326.17Z" fill="#021018"/>
<path id="Vector_3" d="M372.14 137.188C431.057 183.313 390.147 212.784 318.323 220.787C336.495 297.383 280.776 367.542 221.793 421.867L275.88 397.366C279.882 366.23 334.756 350.044 360.758 280.959C482.897 253.71 462.963 166.052 372.14 137.18V137.188Z" fill="#EB0028"/>
</g>
</g>
</svg>
